<svg width="49" height="37" viewBox="0 0 49 37" fill="none" xmlns="http://www.w3.org/2000/svg">
<path d="M20.3527 2.60849C20.2771 3.02288 20.5782 3.39822 20.9913 3.47379C21.0291 3.47379 21.0656 3.47379 21.1034 3.47379C21.4787 3.47379 21.7798 3.21055 21.8553 2.83395C21.9297 2.42082 21.6299 2.04422 21.2168 1.96865C20.8036 1.89434 20.4283 2.19536 20.3527 2.60849Z" fill="#DF0404"/>
<path d="M26.3229 3.47379C26.2486 3.88692 26.5483 4.26352 26.9614 4.33909C26.9992 4.33909 27.037 4.33909 27.0748 4.33909C27.4501 4.33909 27.7499 4.07585 27.8255 3.69925C27.9011 3.28612 27.6 2.90952 27.1869 2.83395C26.7738 2.79616 26.3607 3.0594 26.3229 3.47379Z" fill="#DF0404"/>
<path d="M23.3569 3.02288C23.2813 3.43601 23.5823 3.81261 23.9955 3.88692C24.0332 3.88692 24.071 3.88692 24.1076 3.88692C24.4842 3.88692 24.7839 3.62368 24.8595 3.24834C24.9338 2.83395 24.634 2.45861 24.2209 2.38304C23.77 2.34525 23.3947 2.64628 23.3569 3.02288Z" fill="#DF0404"/>
<path d="M29.3271 4.00027C28.9895 4.22573 28.8774 4.6779 29.1029 5.05324C29.2527 5.2787 29.4782 5.39205 29.7402 5.39205C29.8913 5.39205 30.0034 5.35427 30.1533 5.2787C30.4921 5.05324 30.6042 4.60233 30.3788 4.22573C30.1533 3.88691 29.7037 3.8126 29.3271 4.00027Z" fill="#DF0404"/>
<path d="M4.3189 9.34069C4.43099 8.92756 4.16775 8.55097 3.75463 8.43887C3.3415 8.36329 2.92837 8.58875 2.85406 9.00314C2.77849 9.41626 3.00395 9.83065 3.41707 9.90496C3.45486 9.90496 3.52917 9.94275 3.56696 9.94275C3.9423 9.94275 4.24332 9.71729 4.3189 9.34069Z" fill="#DF0404"/>
<path d="M5.67052 3.47379C5.78262 3.05941 5.52064 2.68407 5.10751 2.57071C4.69438 2.45861 4.31904 2.72185 4.20569 3.13498C4.09359 3.54936 4.35557 3.9247 4.7687 4.03806C4.80648 4.03806 4.88205 4.03806 4.95637 4.03806C5.29518 4.07585 5.59495 3.85039 5.67052 3.47379Z" fill="#DF0404"/>
<path d="M4.99401 6.40723C5.06958 5.99411 4.84413 5.61751 4.431 5.50541C4.01787 5.39205 3.60475 5.65529 3.52917 6.06842C3.45486 6.48281 3.68032 6.85941 4.09344 6.9715C4.16776 6.9715 4.20554 7.00929 4.28111 7.00929C4.61867 7.00929 4.9197 6.78383 4.99401 6.40723Z" fill="#DF0404"/>
<path d="M3.07943 11.3723C2.66631 11.2967 2.25318 11.5235 2.17761 11.9366C2.06551 12.3497 2.32749 12.7263 2.74062 12.8397C2.77841 12.8397 2.85398 12.8397 2.92829 12.8397C3.2671 12.8397 3.56687 12.6142 3.64245 12.2754C3.75454 11.8988 3.49256 11.4857 3.07943 11.3723Z" fill="#DF0404"/>
<mask id="mask0_65_113" style="mask-type:luminance" maskUnits="userSpaceOnUse" x="5" y="0" width="3" height="2">
<path d="M5.32031 0H7.25495V1.86411H5.32031V0Z" fill="white"/>
</mask>
<g mask="url(#mask0_65_113)">
<path d="M6.38336 1.6311C6.49672 1.6311 6.60881 1.59331 6.68439 1.55552C7.05973 1.36785 7.20961 0.915682 7.05973 0.540342C6.87206 0.163742 6.45893 0.013858 6.0458 0.163742C5.67046 0.351412 5.52058 0.803584 5.67046 1.17892C5.82035 1.47995 6.08359 1.6311 6.38336 1.6311Z" fill="#DF0404"/>
</g>
<path d="M15.0577 2.57071C15.0955 2.57071 15.1333 2.57071 15.1711 2.57071C15.5464 2.57071 15.8462 2.30747 15.9218 1.93213C15.9974 1.51774 15.6963 1.14114 15.2832 1.06683C14.8701 0.99126 14.4947 1.29229 14.4192 1.70541C14.3826 2.1198 14.6446 2.4964 15.0577 2.57071Z" fill="#DF0404"/>
<path d="M18.2494 1.51774C17.8363 1.44216 17.461 1.74319 17.3867 2.15758C17.3111 2.5707 17.6121 2.9473 18.0252 3.02288C18.0618 3.02288 18.0996 3.02288 18.1373 3.02288C18.5127 3.02288 18.8137 2.75963 18.888 2.38303C18.9636 1.96865 18.6626 1.59331 18.2494 1.51774Z" fill="#DF0404"/>
<path d="M11.453 1.25449C11.3787 1.66888 11.6784 2.04422 12.0916 2.11979C12.1294 2.11979 12.1671 2.11979 12.2037 2.11979C12.5803 2.11979 12.88 1.85655 12.9556 1.47995C13.0299 1.06682 12.7302 0.690219 12.317 0.614647C11.9039 0.578121 11.5286 0.841363 11.453 1.25449Z" fill="#DF0404"/>
<mask id="mask1_65_113" style="mask-type:luminance" maskUnits="userSpaceOnUse" x="8" y="0" width="3" height="2">
<path d="M8.22217 0H10.1568V1.86411H8.22217V0Z" fill="white"/>
</mask>
<g mask="url(#mask1_65_113)">
<path d="M8.48675 0.803578C8.41118 1.2167 8.71221 1.5933 9.12534 1.66888C9.16312 1.66888 9.19965 1.66888 9.23743 1.66888C9.61277 1.66888 9.9138 1.40563 9.98812 1.02903C10.0637 0.614648 9.76392 0.239308 9.35079 0.163736C8.93767 0.12595 8.56233 0.389192 8.48675 0.803578Z" fill="#DF0404"/>
</g>
<path d="M18.6626 8.58875C18.4749 8.21341 17.9875 8.10005 17.6487 8.28772L16.4105 9.00314L15.6964 7.76124C15.4709 7.3859 15.02 7.27254 14.6825 7.498C14.3071 7.72345 14.195 8.17563 14.4192 8.51444L15.1334 9.71729L13.894 10.4314C13.5187 10.6204 13.4053 11.1091 13.5942 11.4479C13.7441 11.7111 13.9696 11.8232 14.2315 11.8232C14.3449 11.8232 14.4948 11.7867 14.6081 11.7111L15.8463 10.9957L16.5604 12.2376C16.7103 12.4631 16.9358 12.6142 17.199 12.6142C17.3111 12.6142 17.461 12.5764 17.5743 12.5009C17.9497 12.2754 18.0618 11.8232 17.8363 11.4857L17.199 10.2816L18.4006 9.60519C18.7382 9.41627 18.888 8.92757 18.6626 8.58875Z" fill="#DF0404"/>
<path d="M42.8833 24.2359C42.3959 23.7472 41.7195 23.4462 41.0066 23.4462C40.5557 23.4462 40.1048 23.5583 39.7295 23.785L39.203 23.2585C42.2082 19.723 42.0193 14.3813 38.7156 11.0335C37.0253 9.34069 34.7354 8.40108 32.3323 8.40108C29.9278 8.40108 27.6758 9.34069 25.9477 11.0335C22.4185 14.569 22.4185 20.286 25.9477 23.785C27.638 25.4765 29.9278 26.4174 32.3323 26.4174C34.4722 26.4174 36.5378 25.6655 38.1525 24.2737L38.6778 24.8002C38.1148 25.8154 38.2646 27.1316 39.1287 27.9591L43.5597 32.3977C44.0472 32.8864 44.7235 33.1874 45.4377 33.1874C46.1506 33.1874 46.8269 32.9242 47.3144 32.3977C48.3661 31.3447 48.3661 29.6519 47.3144 28.5989L42.8833 24.2359ZM37.5883 22.732C36.1247 24.1981 34.209 24.9501 32.2945 24.9501C30.3787 24.9501 28.4642 24.1981 26.9994 22.732C24.071 19.7973 24.071 15.0212 26.9994 12.0865C28.4642 10.6582 30.3787 9.90496 32.2945 9.90496C34.209 9.90496 36.1247 10.6582 37.5883 12.1243C40.5557 15.059 40.5557 19.7973 37.5883 22.732ZM46.2261 31.3825C46.0007 31.6079 45.6997 31.7213 45.3999 31.7213C45.0989 31.7213 44.7991 31.6079 44.5736 31.3825L40.1426 26.9439C39.6917 26.493 39.6917 25.741 40.1426 25.2889C40.3681 25.0634 40.6678 24.9501 40.9689 24.9501C41.2686 24.9501 41.5697 25.0634 41.7951 25.2889L46.2261 29.7275C46.6758 30.1784 46.6758 30.9316 46.2261 31.3825Z" fill="#DF0404"/>
<path d="M32.2943 12.162C30.6418 12.162 29.2903 13.516 29.2903 15.1711C29.2903 15.5854 29.6278 15.923 30.041 15.923C30.4541 15.923 30.7916 15.5854 30.7916 15.1711C30.7916 14.3435 31.468 13.6672 32.2943 13.6672C33.1205 13.6672 33.7956 14.3435 33.7956 15.1711C33.7956 15.9986 33.1205 16.6762 32.2943 16.6762C31.8811 16.6762 31.5423 17.0137 31.5423 17.4281V18.932C31.5423 19.3464 31.8811 19.6852 32.2943 19.6852C32.7074 19.6852 33.0449 19.3464 33.0449 18.932V18.068C34.3221 17.7292 35.2982 16.5628 35.2982 15.1711C35.2982 13.516 33.9468 12.162 32.2943 12.162Z" fill="#DF0404"/>
<path d="M32.2944 20.4372C31.8813 20.4372 31.5425 20.776 31.5425 21.1891V21.941C31.5425 22.3554 31.8813 22.6942 32.2944 22.6942C32.7075 22.6942 33.0451 22.3554 33.0451 21.941V21.1891C33.0451 20.776 32.7075 20.4372 32.2944 20.4372Z" fill="#DF0404"/>
<mask id="mask2_65_113" style="mask-type:luminance" maskUnits="userSpaceOnUse" x="0" y="14" width="31" height="23">
<path d="M0 14.7617H30.1481V37H0V14.7617Z" fill="white"/>
</mask>
<g mask="url(#mask2_65_113)">
<path d="M3.00398 36.9861H27.0371C28.6896 36.9861 30.0411 35.6321 30.0411 33.9771V27.7336C29.5159 27.6215 29.0272 27.4704 28.5385 27.2827V33.9771C28.5385 34.8046 27.8634 35.4823 27.0371 35.4823H3.00398C2.17773 35.4823 1.50262 34.8046 1.50262 33.9771V33.2252H21.0291C21.4423 33.2252 21.7798 32.8864 21.7798 32.4732C21.7798 32.0589 21.4423 31.7213 21.0291 31.7213H1.50262V16.6762C1.50262 16.4495 1.65251 16.2996 1.87796 16.2996H7.62268C7.73604 16.2996 7.81035 16.3374 7.88593 16.413L9.95156 18.6322C10.2513 18.932 10.7022 18.9698 11.002 18.6688C11.1897 18.5567 11.2652 18.3677 11.2652 18.1801H21.8176C21.7798 17.6914 21.7798 17.1649 21.8176 16.6762H10.177L9.01195 15.3965C8.67439 15.0212 8.14917 14.7957 7.62268 14.7957H1.87796C0.826253 14.7957 0 15.6232 0 16.6762V33.9771C0 35.6321 1.35148 36.9861 3.00398 36.9861Z" fill="#DF0404"/>
</g>
</svg>
