<svg width="32" height="32" viewBox="0 0 32 32" fill="none" xmlns="http://www.w3.org/2000/svg">
<path d="M7.99992 25.3333V13.3333C7.99992 11.2116 8.84277 9.17678 10.3431 7.67649C11.8434 6.1762 13.8782 5.33334 15.9999 5.33334C18.1217 5.33334 20.1565 6.1762 21.6568 7.67649C23.1571 9.17678 23.9999 11.2116 23.9999 13.3333V25.3333M7.99992 25.3333H23.9999M7.99992 25.3333H5.33325M23.9999 25.3333H26.6666M14.6666 29.3333H17.3333" stroke="black" stroke-width="1.5" stroke-linecap="round" stroke-linejoin="round"/>
<path d="M15.9998 5.33334C16.7362 5.33334 17.3332 4.73638 17.3332 4.00001C17.3332 3.26363 16.7362 2.66667 15.9998 2.66667C15.2635 2.66667 14.6665 3.26363 14.6665 4.00001C14.6665 4.73638 15.2635 5.33334 15.9998 5.33334Z" stroke="black" stroke-width="1.5"/>
</svg>
