<svg width="32" height="32" viewBox="0 0 32 32" fill="none" xmlns="http://www.w3.org/2000/svg">
<path d="M25.9801 26.872L17.6307 18.5227C16.9641 19.0907 16.1974 19.5302 15.3307 19.8413C14.4641 20.1524 13.5929 20.308 12.7174 20.308C10.5823 20.308 8.77517 19.5689 7.29606 18.0907C5.81695 16.6124 5.07739 14.8058 5.07739 12.6707C5.07739 10.5356 5.81606 8.728 7.29339 7.248C8.77073 5.768 10.5769 5.02711 12.7121 5.02533C14.8472 5.02356 16.6552 5.76311 18.1361 7.244C19.6169 8.72489 20.3574 10.5324 20.3574 12.6667C20.3574 13.5929 20.1934 14.4893 19.8654 15.356C19.5374 16.2227 19.1063 16.964 18.5721 17.58L26.9214 25.928L25.9801 26.872ZM12.7187 18.9733C14.4876 18.9733 15.9809 18.3644 17.1987 17.1467C18.4165 15.9289 19.0254 14.4351 19.0254 12.6653C19.0254 10.8956 18.4165 9.40222 17.1987 8.18533C15.9809 6.96844 14.4876 6.35956 12.7187 6.35867C10.9498 6.35778 9.45606 6.96667 8.23739 8.18533C7.01873 9.404 6.40984 10.8973 6.41073 12.6653C6.41161 14.4333 7.0205 15.9267 8.23739 17.1453C9.45428 18.364 10.9476 18.9729 12.7174 18.972" fill="black"/>
</svg>
