<svg width="32" height="32" viewBox="0 0 32 32" fill="none" xmlns="http://www.w3.org/2000/svg">
<path d="M13.5133 28L13.0307 24.144C12.6049 24.0151 12.1449 23.8133 11.6507 23.5387C11.1556 23.2631 10.7347 22.968 10.388 22.6533L6.83066 24.1667L4.34399 19.8333L7.41866 17.5147C7.37866 17.2747 7.34622 17.0267 7.32133 16.7707C7.29466 16.5147 7.28133 16.2662 7.28133 16.0253C7.28133 15.8013 7.29466 15.5658 7.32133 15.3187C7.34622 15.0716 7.37866 14.7933 7.41866 14.484L4.34399 12.168L6.83066 7.88533L10.3613 9.37333C10.7596 9.04178 11.1907 8.74267 11.6547 8.476C12.1169 8.20933 12.5671 8.00311 13.0053 7.85733L13.512 4H18.488L18.9693 7.88267C19.4804 8.06222 19.932 8.268 20.324 8.5C20.716 8.732 21.12 9.02267 21.536 9.372L25.1693 7.88533L27.656 12.1667L24.48 14.5613C24.5529 14.8369 24.5938 15.0898 24.6027 15.32C24.6116 15.5502 24.616 15.7769 24.616 16C24.616 16.2071 24.6071 16.4253 24.5893 16.6547C24.5724 16.8849 24.5333 17.1631 24.472 17.4893L27.5973 19.8333L25.1107 24.1667L21.536 22.628C21.1209 22.9773 20.7031 23.2764 20.2827 23.5253C19.8622 23.7742 19.4244 23.972 18.9693 24.1187L18.488 28H13.5133ZM14.6667 26.6667H17.2747L17.7667 23.056C18.4387 22.8782 19.0431 22.6342 19.58 22.324C20.1187 22.0138 20.6662 21.5889 21.2227 21.0493L24.5493 22.4667L25.8747 20.2L22.956 18.008C23.0671 17.6284 23.1409 17.2791 23.1773 16.96C23.2129 16.6418 23.2307 16.3218 23.2307 16C23.2307 15.6622 23.2129 15.3422 23.1773 15.04C23.1418 14.7378 23.068 14.4058 22.956 14.044L25.9253 11.8L24.6 9.53333L21.1973 10.96C20.7938 10.5164 20.2636 10.1009 19.6067 9.71333C18.9489 9.32667 18.3267 9.07022 17.74 8.944L17.3333 5.33333H14.6747L14.2587 8.91867C13.5867 9.06178 12.9689 9.29289 12.4053 9.612C11.8427 9.93022 11.2827 10.368 10.7253 10.9253L7.39999 9.53333L6.07466 11.8L8.96666 13.96C8.85555 14.2587 8.77777 14.5831 8.73333 14.9333C8.68888 15.2836 8.66666 15.648 8.66666 16.0267C8.66666 16.3644 8.68888 16.7 8.73333 17.0333C8.77777 17.3667 8.84711 17.6911 8.94133 18.0067L6.07466 20.2L7.39999 22.4667L10.7 21.0667C11.2235 21.5947 11.7667 22.0182 12.3293 22.3373C12.8929 22.6564 13.5276 22.9049 14.2333 23.0827L14.6667 26.6667ZM15.964 19.3333C16.8938 19.3333 17.6818 19.0102 18.328 18.364C18.9742 17.7178 19.2973 16.9298 19.2973 16C19.2973 15.0702 18.9742 14.2822 18.328 13.636C17.6818 12.9898 16.8938 12.6667 15.964 12.6667C15.0289 12.6667 14.2395 12.9898 13.596 13.636C12.9524 14.2822 12.6307 15.0702 12.6307 16C12.6307 16.9298 12.9524 17.7178 13.596 18.364C14.2395 19.0102 15.0289 19.3333 15.964 19.3333Z" fill="black"/>
</svg>
